<svg xmlns="http://www.w3.org/2000/svg" width="19.017" height="19.676" viewBox="0 0 19.017 19.676"><defs><style>.a{fill:#3f3b3c;}</style></defs><g transform="translate(-9.398 -9)"><path class="a" d="M36.341,40.873a.909.909,0,0,0,.609.234.95.95,0,0,0,.7-.328l2.951-3.42a.926.926,0,0,0,0-1.218l-2.952-3.42a.93.93,0,1,0-1.405,1.219l1.616,1.874H31.937a.937.937,0,1,0,0,1.874h5.927l-1.616,1.874a.907.907,0,0,0,.093,1.312Z" transform="translate(-16.542 -17.912)"/><path class="a" d="M26.615,15.817a.935.935,0,0,0,1.733-.7,9.838,9.838,0,1,0,0,7.448.935.935,0,0,0-1.733-.7,7.964,7.964,0,1,1,0-6.042Z"/></g></svg>