<svg xmlns="http://www.w3.org/2000/svg" width="40" height="40" viewBox="0 0 40 40"><defs><style>.a{fill:none;}.b{fill:#3f3b3c;stroke:#3f3b3c;stroke-width:0.3px;}</style></defs><path class="a" d="M0,0H40V40H0Z"/><g transform="translate(2.5 0.7)"><path class="b" d="M31.842,11.112a3.039,3.039,0,0,0-2.369-1.169H10.238l-.6-2.337A3.036,3.036,0,0,0,6.7,5.3H3.479a.979.979,0,0,0,0,1.958H6.7a1.044,1.044,0,0,1,1.011.79L11.565,23.4A3.036,3.036,0,0,0,14.5,25.7H27.1A3.009,3.009,0,0,0,30.042,23.4l2.369-9.728A2.9,2.9,0,0,0,31.842,11.112Zm-1.358,2.116-2.369,9.728a1.044,1.044,0,0,1-1.011.79H14.5a1.044,1.044,0,0,1-1.011-.79L10.744,11.933h18.73a1.048,1.048,0,0,1,.821.411A.991.991,0,0,1,30.484,13.228Z"/><path class="b" d="M35.485,73.9a3.285,3.285,0,1,0,3.285,3.285A3.3,3.3,0,0,0,35.485,73.9Zm0,4.58a1.295,1.295,0,1,1,1.295-1.295A1.322,1.322,0,0,1,35.485,78.48Z" transform="translate(-20.319 -46.933)"/><path class="b" d="M69.885,73.9a3.285,3.285,0,1,0,3.285,3.285A3.3,3.3,0,0,0,69.885,73.9Zm0,4.58a1.295,1.295,0,1,1,1.295-1.295A1.322,1.322,0,0,1,69.885,78.48Z" transform="translate(-43.854 -46.933)"/></g></svg>