<svg xmlns="http://www.w3.org/2000/svg" width="18.568" height="18.974" viewBox="0 0 18.568 18.974">
  <path id="np_package_225683_000000" d="M19.208,3.954a.6.6,0,0,0-.017-.137c0-.009-.006-.017-.008-.026a.626.626,0,0,0-.039-.1.337.337,0,0,0-.022-.039.557.557,0,0,0-.053-.078.435.435,0,0,0-.03-.035.6.6,0,0,0-.079-.07c-.007-.005-.012-.013-.019-.018l-.007,0a.635.635,0,0,0-.122-.065L10.148.04A.621.621,0,0,0,9.7.04L1.045,3.379h0l-.006,0a.608.608,0,0,0-.121.065l-.007,0C.9,3.454.9,3.461.892,3.466a.611.611,0,0,0-.08.071.32.32,0,0,0-.029.034.634.634,0,0,0-.054.078c-.007.013-.016.025-.022.039a.7.7,0,0,0-.039.1c0,.009-.007.017-.009.026a.65.65,0,0,0-.017.137s0,.005,0,.008V15.009a.622.622,0,0,0,.4.58L9.7,18.931c.019.007.038.01.057.016s.031.01.048.013a.6.6,0,0,0,.238,0c.016,0,.032-.009.048-.013s.038-.009.056-.016l8.662-3.341a.622.622,0,0,0,.4-.58V3.962s0-.005,0-.008ZM9.925,6.637l-2.6-1,6.935-2.675,2.6,1Zm0-5.351,2.6,1L5.593,4.966l-2.6-1ZM1.884,4.868,4.972,6.059v4.814a.622.622,0,1,0,1.243,0V6.539L9.3,7.73v9.715L1.884,14.583Zm16.081,9.716-7.419,2.862V7.73l7.419-2.862Z" transform="translate(-0.641 0.001)" fill="#3f3b3c" fill-rule="evenodd"/>
</svg>
