<svg xmlns="http://www.w3.org/2000/svg" width="126.577" height="88.946" viewBox="0 0 126.577 88.946"><defs><style>.a,.c,.d{fill:#fff;}.b{fill:#c9c9c9;}.c{stroke:#f0f0f0;stroke-width:2px;}.e{fill:#3f3b3c;}.f,.k{fill:#f0f0f0;}.g,.l{fill:none;}.g{stroke:#ed2f52;}.h{fill:#ed2f52;}.i{fill:#bf0811;}.j,.k{stroke:none;}</style></defs><g transform="translate(-31.37 -36.528)"><g transform="translate(113.909 45.836) rotate(30)"><g class="a" transform="translate(0 0)"><path class="j" d="M 5.061671733856201 62.52421188354492 C 3.970481634140015 62.52421188354492 2.947061538696289 62.10068130493164 2.179941654205322 61.33163070678711 C 1.416341662406921 60.56610107421875 0.9973016381263733 59.54805374145508 1.000021576881409 58.46500396728516 L 1.133841633796692 5.183232307434082 C 1.139491677284241 2.933802127838135 2.979961633682251 1.099162101745605 5.23656177520752 1.093512177467346 L 42.54464340209961 1.000012159347534 L 42.55519104003906 0.9999921321868896 C 43.64639282226562 0.9999921321868896 44.6698112487793 1.423532128334045 45.43692016601562 2.192572116851807 C 46.20053100585938 2.958102226257324 46.61957168579102 3.976162195205688 46.61685180664062 5.059212207794189 L 46.4830322265625 58.34098052978516 C 46.47737121582031 60.59040069580078 44.63690185546875 62.42504119873047 42.38030242919922 62.43069076538086 L 5.072221755981445 62.52419281005859 L 5.061671733856201 62.52421188354492 Z"/><path class="k" d="M 42.55519104003906 1.999992370605469 L 42.54714202880859 2.000003814697266 L 5.239063262939453 2.093502044677734 C 3.531112670898438 2.097782135009766 2.138111114501953 3.484951019287109 2.133831024169922 5.185733795166016 L 2 58.46751403808594 C 1.997962951660156 59.28297424316406 2.31329345703125 60.04933166503906 2.887931823730469 60.62541198730469 C 3.466072082519531 61.20501327514648 4.238059997558594 61.52421188354492 5.061679840087891 61.52421188354492 L 5.069732666015625 61.52420043945312 L 42.37779998779297 61.43070220947266 C 44.08575057983398 61.42642211914062 45.478759765625 60.03924179077148 45.48303985595703 58.33847045898438 L 45.61686325073242 5.05670166015625 C 45.61890029907227 4.241233825683594 45.30356216430664 3.474861145019531 44.72891998291016 2.898780822753906 C 44.15077972412109 2.319190979003906 43.37880325317383 1.999992370605469 42.55519104003906 1.999992370605469 M 42.5551872253418 -3.814697265625e-06 C 45.35898590087891 -3.814697265625e-06 47.62387084960938 2.263446807861328 47.61685180664062 5.061721801757812 L 47.4830322265625 58.34349060058594 C 47.47598266601562 61.14602279663086 45.19254302978516 63.42365264892578 42.3828125 63.43069076538086 L 5.074741363525391 63.52419281005859 C 5.070453643798828 63.52420425415039 5.065971374511719 63.52420806884766 5.061687469482422 63.52420806884766 C 2.25787353515625 63.52420806884766 -0.00701904296875 61.26074600219727 1.1444091796875e-05 58.46249389648438 L 0.1338424682617188 5.180713653564453 C 0.1408805847167969 2.378173828125 2.424320220947266 0.1005516052246094 5.234050750732422 0.09351348876953125 L 42.54212951660156 1.1444091796875e-05 C 42.54641723632812 0 42.5509033203125 -3.814697265625e-06 42.5551872253418 -3.814697265625e-06 Z"/></g><path class="b" d="M1.092,2.184l16.6-.041a1.09,1.09,0,0,0,1.1-1.074A1.076,1.076,0,0,0,17.693,0L1.1.041A1.09,1.09,0,0,0,0,1.115,1.076,1.076,0,0,0,1.092,2.184Z" transform="translate(11.017 6.333)"/><path class="b" d="M0,1.1A1.084,1.084,0,0,0,1.091,2.184l3.827-.01a1.1,1.1,0,0,0,1.1-1.09A1.084,1.084,0,0,0,4.924,0L1.1.01A1.1,1.1,0,0,0,0,1.1Z" transform="translate(31.055 6.314)"/><path class="b" d="M1.091,2.184,6.742,2.17a1.1,1.1,0,0,0,1.1-1.087A1.083,1.083,0,0,0,6.748,0L1.1.014A1.1,1.1,0,0,0,0,1.1,1.083,1.083,0,0,0,1.091,2.184Z" transform="translate(11.003 11.809)"/><path class="b" d="M16.96,1.071A1.078,1.078,0,0,0,15.868,0L1.1.036A1.091,1.091,0,0,0,0,1.113,1.078,1.078,0,0,0,1.091,2.184l14.772-.036A1.091,1.091,0,0,0,16.96,1.071Z" transform="translate(20.111 11.763)"/></g><g transform="translate(95.886 104.469) rotate(150)"><g class="c" transform="translate(0 0)"><rect class="j" width="42.012" height="56.266" rx="6"/><rect class="l" x="1" y="1" width="40.012" height="54.266" rx="5"/></g><path class="b" d="M.96,0H15.522a.96.96,0,1,1,0,1.92H.96A.96.96,0,1,1,.96,0Z" transform="translate(9.564 48.798)"/><path class="b" d="M0,.96A.96.96,0,0,1,.96,0H4.32a.96.96,0,0,1,0,1.92H.96A.96.96,0,0,1,0,.96Z" transform="translate(27.167 48.798)"/><path class="b" d="M.96,0H5.921a.96.96,0,0,1,0,1.92H.96A.96.96,0,1,1,.96,0Z" transform="translate(9.565 43.997)"/><path class="b" d="M14.882.96a.96.96,0,0,1-.96.96H.96A.96.96,0,1,1,.96,0H13.922A.96.96,0,0,1,14.882.96Z" transform="translate(17.565 43.997)"/></g><path class="d" d="M61.785,126.868a5.91,5.91,0,0,0,4.147,1.7h59.647a5.938,5.938,0,0,0,5.932-5.932V88.8c0-.007,0-.014,0-.021a.893.893,0,0,0-.007-.1c0-.011,0-.023,0-.034a1.1,1.1,0,0,0-.026-.126c0-.006,0-.012-.006-.018a1.081,1.081,0,0,0-.036-.106l-.013-.031q-.023-.051-.05-.1l-.009-.016a1.073,1.073,0,0,0-.075-.111l-.012-.014a1.07,1.07,0,0,0-.075-.084l-.026-.026c-.024-.023-.05-.045-.077-.066l-.026-.021-.011-.008-11.51-8.276v-16.8a4.972,4.972,0,0,0-4.966-4.966H76.932a4.972,4.972,0,0,0-4.966,4.966V78.217L60.39,87.964h0A1.092,1.092,0,0,0,60,88.8v33.831a5.909,5.909,0,0,0,1.616,4.063,1.1,1.1,0,0,0,.169.173Z" transform="translate(-4.309 -3.549)"/><path class="e" d="M61.785,126.868a5.91,5.91,0,0,0,4.147,1.7h59.647a5.938,5.938,0,0,0,5.932-5.932V88.8c0-.007,0-.014,0-.021a.893.893,0,0,0-.007-.1c0-.011,0-.023,0-.034a1.1,1.1,0,0,0-.026-.126c0-.006,0-.012-.006-.018a1.081,1.081,0,0,0-.036-.106l-.013-.031q-.023-.051-.05-.1l-.009-.016a1.073,1.073,0,0,0-.075-.111l-.012-.014a1.07,1.07,0,0,0-.075-.084l-.026-.026c-.024-.023-.05-.045-.077-.066l-.026-.021-.011-.008-11.51-8.276v-16.8a4.972,4.972,0,0,0-4.966-4.966H76.932a4.972,4.972,0,0,0-4.966,4.966V78.217L60.39,87.964h0A1.092,1.092,0,0,0,60,88.8v33.831a5.909,5.909,0,0,0,1.616,4.063,1.1,1.1,0,0,0,.169.173Zm25.582-20.624L62.691,124.5a3.716,3.716,0,0,1-.5-1.864V90.708ZM65.932,126.375a3.715,3.715,0,0,1-1.6-.366l25.047-18.527,3.269,2.017a5.9,5.9,0,0,0,6.224,0l3.215-1.979,25.055,18.506a3.714,3.714,0,0,1-1.56.345ZM129.321,90.76v31.872a3.715,3.715,0,0,1-.525,1.9l-24.7-18.247Zm-.879-2.03-8.9,5.476V82.333ZM76.932,60.064h37.646a2.781,2.781,0,0,1,2.777,2.777V79.868a1.1,1.1,0,0,0,0,.6V95.553L97.72,107.639a3.724,3.724,0,0,1-3.927,0L74.155,95.518V62.841A2.781,2.781,0,0,1,76.932,60.064Zm-4.966,34.1-8.971-5.535,8.971-7.554Z" transform="translate(-4.309 -3.549)"/><path class="b" d="M185.595,93.107h16.6a1.095,1.095,0,0,0,0-2.189h-16.6a1.095,1.095,0,0,0,0,2.189Z" transform="translate(-106.095 -30.226)"/><path class="b" d="M294.5,92.013a1.1,1.1,0,0,0,1.095,1.095h3.831a1.095,1.095,0,1,0,0-2.189h-3.831A1.1,1.1,0,0,0,294.5,92.013Z" transform="translate(-196.073 -30.226)"/><path class="b" d="M185.595,123.107h5.655a1.095,1.095,0,0,0,0-2.189h-5.655a1.095,1.095,0,1,0,0,2.189Z" transform="translate(-106.08 -54.783)"/><path class="b" d="M251.465,122.013a1.1,1.1,0,0,0-1.095-1.095H235.595a1.095,1.095,0,1,0,0,2.189h14.776A1.1,1.1,0,0,0,251.465,122.013Z" transform="translate(-147.002 -54.783)"/><path class="f" d="M77.473,241.231,72,237.854v31.924a3.717,3.717,0,0,0,.5,1.864l4.971-3.676Z" transform="translate(-14.037 -150.696)"/><path class="f" d="M111.751,331.648l-2.984-1.841L83.721,348.334a3.714,3.714,0,0,0,1.6.366H90.8a3.713,3.713,0,0,1-1.6-.366Z" transform="translate(-23.647 -225.874)"/><path class="f" d="M143.065,105.329V72.652a2.781,2.781,0,0,1,2.777-2.777h-5.473a2.781,2.781,0,0,0-2.777,2.777v32.677l19.638,12.118a3.724,3.724,0,0,0,3.927,0l.776-.477Z" transform="translate(-67.722 -13.118)"/><path class="f" d="M81.889,192.625l3.5-2.945v-4.608l-8.971,7.554,8.971,5.535v-3.377Z" transform="translate(-17.652 -107.327)"/><g class="g" transform="translate(153.671 44.226)"><ellipse class="j" cx="2.138" cy="2.138" rx="2.138" ry="2.138"/><ellipse class="l" cx="2.138" cy="2.138" rx="1.638" ry="1.638"/></g><g class="g" transform="translate(84.606 42.515)"><ellipse class="j" cx="2.138" cy="2.138" rx="2.138" ry="2.138"/><ellipse class="l" cx="2.138" cy="2.138" rx="1.638" ry="1.638"/></g><g class="g" transform="translate(33.454 104.581)"><ellipse class="j" cx="2.138" cy="2.138" rx="2.138" ry="2.138"/><ellipse class="l" cx="2.138" cy="2.138" rx="1.638" ry="1.638"/></g><ellipse class="h" cx="2.138" cy="2.138" rx="2.138" ry="2.138" transform="translate(99.117 36.528)"/><ellipse class="h" cx="2.138" cy="2.138" rx="2.138" ry="2.138" transform="translate(139.132 117.318)"/><g transform="translate(80.733 10.767)"><g transform="translate(0 67.997)"><path class="i" d="M21.434,68.316a1.088,1.088,0,0,0-1.538,0L6.865,81.347,1.856,76.338A1.088,1.088,0,0,0,.318,77.876L6.1,83.654a1.088,1.088,0,0,0,1.538,0l13.8-13.8A1.088,1.088,0,0,0,21.434,68.316Z" transform="translate(0 -67.997)"/></g></g></g></svg>