<svg xmlns="http://www.w3.org/2000/svg" width="86.1" height="60.503" viewBox="0 0 86.1 60.503"><defs><style>.a,.c,.d{fill:#fff;}.b{fill:#c9c9c9;}.c{stroke:#f0f0f0;stroke-width:2px;}.e{fill:#3f3b3c;}.f,.k{fill:#f0f0f0;}.g{fill:#bf0811;}.h,.l{fill:none;}.h{stroke:#ed2f52;}.i{fill:#ed2f52;}.j,.k{stroke:none;}</style></defs><g transform="translate(-31.37 -36.528)"><g transform="translate(87.514 42.86) rotate(30)"><g class="a" transform="translate(0 0)"><path class="j" d="M 3.443038702011108 42.21023941040039 C 2.786348581314087 42.21023941040039 2.170608520507812 41.95550918579102 1.70922863483429 41.49298095703125 C 1.250248551368713 41.03282928466797 0.9983686208724976 40.42082977294922 1.000008583068848 39.76969146728516 L 1.091038584709167 3.526519775390625 C 1.094438552856445 2.17186975479126 2.203268527984619 1.067009687423706 3.562798500061035 1.063609719276428 L 28.94038772583008 1.000009655952454 L 28.94675827026367 0.9999997019767761 C 29.60344886779785 0.9999997019767761 30.21918869018555 1.254729747772217 30.68056869506836 1.717259764671326 C 31.13954925537109 2.177399635314941 31.39142799377441 2.789419651031494 31.3897876739502 3.44055962562561 L 31.29875946044922 39.68371963500977 C 31.29535865783691 41.03836822509766 30.1865291595459 42.14323043823242 28.82699775695801 42.14662933349609 L 3.449408531188965 42.21022796630859 L 3.443038702011108 42.21023941040039 Z"/><path class="k" d="M 28.9428882598877 2 L 3.565298080444336 2.0635986328125 C 2.75440788269043 2.065639495849609 2.093059539794922 2.723030090332031 2.091028213500977 3.529029846191406 L 1.999998092651367 39.77220153808594 C 1.999038696289062 40.1557502746582 2.147209167480469 40.51605987548828 2.417228698730469 40.78675842285156 C 2.689628601074219 41.05984115600586 3.053937911987305 41.21023941040039 3.446908950805664 41.21023941040039 L 28.82449913024902 41.14664077758789 C 29.63538932800293 41.14459991455078 30.29673767089844 40.48720932006836 30.29876899719238 39.68120956420898 L 30.38979911804199 3.438060760498047 C 30.3907585144043 3.054489135742188 30.24257850646973 2.694168090820312 29.97255897521973 2.423480987548828 C 29.70015907287598 2.150390625 29.33585929870605 2 28.94675827026367 2 L 28.9428882598877 2 M 28.94676208496094 0 C 30.85394859313965 0 32.39456176757812 1.539638519287109 32.38978958129883 3.443069458007812 L 32.29875946044922 39.68622970581055 C 32.29396820068359 41.59255981445312 30.7407283782959 43.14183807373047 28.82950782775879 43.14662933349609 L 3.451919555664062 43.21022796630859 C 3.449003219604492 43.21023559570312 3.445949554443359 43.21023941040039 3.443035125732422 43.21023941040039 C 1.535848617553711 43.21023941040039 -0.004772186279296875 41.67060089111328 7.62939453125e-06 39.76718139648438 L 0.09103775024414062 3.524009704589844 C 0.09582901000976562 1.617668151855469 1.649068832397461 0.06840133666992188 3.56028938293457 0.06361007690429688 L 28.9378776550293 1.1444091796875e-05 C 28.9407958984375 3.814697265625e-06 28.94384765625 0 28.94676208496094 0 Z"/></g><path class="b" d="M.742,1.485l11.289-.028a.741.741,0,0,0,.746-.731A.732.732,0,0,0,12.035,0L.746.028A.741.741,0,0,0,0,.758.732.732,0,0,0,.742,1.485Z" transform="translate(7.494 4.307)"/><path class="b" d="M0,.748a.737.737,0,0,0,.742.738l2.6-.007A.746.746,0,0,0,4.091.738.737.737,0,0,0,3.349,0L.746.007A.746.746,0,0,0,0,.748Z" transform="translate(21.124 4.295)"/><path class="b" d="M.742,1.485l3.844-.01a.745.745,0,0,0,.746-.74A.736.736,0,0,0,4.59,0L.746.01A.745.745,0,0,0,0,.749.736.736,0,0,0,.742,1.485Z" transform="translate(7.485 8.033)"/><path class="b" d="M11.536.728A.733.733,0,0,0,10.794,0L.746.025A.742.742,0,0,0,0,.757a.733.733,0,0,0,.742.728L10.79,1.461A.742.742,0,0,0,11.536.728Z" transform="translate(13.68 8.002)"/></g><g transform="translate(75.255 82.742) rotate(150)"><g class="c" transform="translate(0)"><rect class="j" width="28.577" height="38.273" rx="6"/><rect class="l" x="1" y="1" width="26.577" height="36.273" rx="5"/></g><path class="b" d="M.653,0h9.905a.653.653,0,1,1,0,1.306H.653A.653.653,0,1,1,.653,0Z" transform="translate(6.506 33.193)"/><path class="b" d="M0,.653A.653.653,0,0,1,.653,0H2.939a.653.653,0,0,1,0,1.306H.653A.653.653,0,0,1,0,.653Z" transform="translate(18.479 33.193)"/><path class="b" d="M.653,0H4.027a.653.653,0,0,1,0,1.306H.653A.653.653,0,1,1,.653,0Z" transform="translate(6.506 29.928)"/><path class="b" d="M10.123.653a.653.653,0,0,1-.653.653H.653A.653.653,0,1,1,.653,0H9.47A.653.653,0,0,1,10.123.653Z" transform="translate(11.948 29.928)"/></g><path class="d" d="M61.214,104.805a4.02,4.02,0,0,0,2.821,1.154h40.573a4.039,4.039,0,0,0,4.035-4.035V78.912s0-.01,0-.014a.607.607,0,0,0,0-.07c0-.008,0-.016,0-.023a.746.746,0,0,0-.018-.086l0-.012a.737.737,0,0,0-.025-.072l-.009-.021q-.015-.035-.034-.068l-.006-.011a.729.729,0,0,0-.051-.076l-.008-.01a.728.728,0,0,0-.051-.057l-.018-.018c-.017-.016-.034-.031-.052-.045l-.018-.014-.007-.006L100.5,72.678V61.253a3.382,3.382,0,0,0-3.378-3.378H71.517a3.382,3.382,0,0,0-3.378,3.378V71.712l-7.874,6.63h0a.743.743,0,0,0-.265.57v23.013a4.019,4.019,0,0,0,1.1,2.764.748.748,0,0,0,.115.118Z" transform="translate(-12.086 -9.241)"/><path class="e" d="M61.214,104.805a4.02,4.02,0,0,0,2.821,1.154h40.573a4.039,4.039,0,0,0,4.035-4.035V78.912s0-.01,0-.014a.607.607,0,0,0,0-.07c0-.008,0-.016,0-.023a.746.746,0,0,0-.018-.086l0-.012a.737.737,0,0,0-.025-.072l-.009-.021q-.015-.035-.034-.068l-.006-.011a.729.729,0,0,0-.051-.076l-.008-.01a.728.728,0,0,0-.051-.057l-.018-.018c-.017-.016-.034-.031-.052-.045l-.018-.014-.007-.006L100.5,72.678V61.253a3.382,3.382,0,0,0-3.378-3.378H71.517a3.382,3.382,0,0,0-3.378,3.378V71.712l-7.874,6.63h0a.743.743,0,0,0-.265.57v23.013a4.019,4.019,0,0,0,1.1,2.764.748.748,0,0,0,.115.118Zm17.4-14.029L61.83,103.192a2.528,2.528,0,0,1-.341-1.268V80.209ZM64.035,104.47a2.527,2.527,0,0,1-1.091-.249l17.037-12.6L82.2,92.991a4.015,4.015,0,0,0,4.234,0l2.187-1.346,17.043,12.588a2.526,2.526,0,0,1-1.061.235Zm43.118-24.226v21.68a2.527,2.527,0,0,1-.357,1.293l-16.8-12.412Zm-.6-1.381L100.5,82.588V74.512Zm-35.038-19.5H97.125a1.891,1.891,0,0,1,1.889,1.889V72.835a.746.746,0,0,0,0,.408V83.5l-13.356,8.22a2.533,2.533,0,0,1-2.671,0L69.628,83.481V61.253A1.891,1.891,0,0,1,71.517,59.364Zm-3.378,23.2-6.1-3.765,6.1-5.138Z" transform="translate(-12.086 -9.241)"/><path class="b" d="M185.245,92.407h11.292a.745.745,0,1,0,0-1.489H185.245a.745.745,0,1,0,0,1.489Z" transform="translate(-121.136 -37.953)"/><path class="b" d="M294.5,91.663a.745.745,0,0,0,.745.745h2.606a.745.745,0,1,0,0-1.489h-2.606A.745.745,0,0,0,294.5,91.663Z" transform="translate(-217.517 -37.953)"/><path class="b" d="M185.245,122.407h3.847a.745.745,0,0,0,0-1.489h-3.847a.745.745,0,1,0,0,1.489Z" transform="translate(-121.126 -64.251)"/><path class="b" d="M246.04,121.663a.745.745,0,0,0-.745-.745H235.245a.745.745,0,1,0,0,1.489H245.3A.745.745,0,0,0,246.04,121.663Z" transform="translate(-164.951 -64.251)"/><path class="f" d="M75.723,240.151,72,237.854v21.715a2.528,2.528,0,0,0,.341,1.268l3.381-2.5Z" transform="translate(-22.541 -166.886)"/><path class="f" d="M102.788,331.059l-2.03-1.252-17.037,12.6a2.527,2.527,0,0,0,1.091.249h3.723a2.526,2.526,0,0,1-1.091-.249Z" transform="translate(-32.826 -247.429)"/><path class="f" d="M141.315,93.992V71.764a1.891,1.891,0,0,1,1.889-1.889h-3.723a1.891,1.891,0,0,0-1.889,1.889V93.992l13.358,8.243a2.533,2.533,0,0,0,2.671,0l.528-.325Z" transform="translate(-80.034 -19.587)"/><path class="f" d="M80.139,190.209l2.38-2v-3.135l-6.1,5.138,6.1,3.765v-2.3Z" transform="translate(-26.412 -120.507)"/><path class="g" d="M166.587,76.913V74.744a6.507,6.507,0,1,0-6.507,6.507.542.542,0,0,0,0-1.084,5.422,5.422,0,1,1,5.422-5.422v2.169a1.084,1.084,0,0,1-2.169,0V74.744a.542.542,0,0,0-1.084,0,2.169,2.169,0,1,1-2.169-2.169.542.542,0,1,0,0-1.084,3.253,3.253,0,1,0,2.192,5.651,2.163,2.163,0,0,0,4.315-.228Z" transform="translate(-87.857 -4.777)"/><g class="h" transform="translate(114.561 41.764)"><circle class="j" cx="1.454" cy="1.454" r="1.454"/><circle class="l" cx="1.454" cy="1.454" r="0.954"/></g><g class="h" transform="translate(67.582 40.601)"><circle class="j" cx="1.454" cy="1.454" r="1.454"/><circle class="l" cx="1.454" cy="1.454" r="0.954"/></g><g class="h" transform="translate(32.787 82.819)"><circle class="j" cx="1.454" cy="1.454" r="1.454"/><circle class="l" cx="1.454" cy="1.454" r="0.954"/></g><circle class="i" cx="1.454" cy="1.454" r="1.454" transform="translate(77.453 36.528)"/><circle class="i" cx="1.454" cy="1.454" r="1.454" transform="translate(104.671 91.483)"/></g></svg>